<svg width="40" height="40" viewBox="0 0 40 40" fill="none" xmlns="http://www.w3.org/2000/svg">
<path d="M24.6013 18.3236V18.3409L24.5903 18.3346L24.6013 18.3236Z" fill="black"/>
<path fill-rule="evenodd" clip-rule="evenodd" d="M40 20C40 31.0457 31.0457 40 20 40C8.9543 40 0 31.0457 0 20C0 8.9543 8.9543 0 20 0C31.0457 0 40 8.9543 40 20ZM20.8989 18.4711L29.5825 23.4888L27.4968 25.6204L23.6218 23.3815V29.5804L20.8989 32.3618V18.4711ZM23.6213 15.4428V13.9062L30.4156 17.8325L32.4184 15.7858L20.8984 9.1304V16.9345L30.0568 22.2266V19.2145L23.6213 15.4428ZM19.395 18.4711L10.7114 23.4888L12.7972 25.6204L16.6722 23.3815V29.5804L19.395 32.3618V18.4711ZM16.6716 15.4428V13.9062L9.87729 17.8326L7.87451 15.7858L19.3945 9.13043V16.9345L10.2361 22.2267V19.2145L16.6716 15.4428Z" fill="white"/>
</svg>
