<svg width="113" height="128" viewBox="0 0 113 128" fill="none" xmlns="http://www.w3.org/2000/svg">
<g filter="url(#filter0_bd_110_1624)">
<circle cx="68" cy="36" r="20" fill="url(#paint0_radial_110_1624)" fill-opacity="0.2" shape-rendering="crispEdges"/>
<circle cx="68" cy="36" r="19.5" stroke="white" stroke-opacity="0.24" shape-rendering="crispEdges"/>
</g>
<path fill-rule="evenodd" clip-rule="evenodd" d="M67.4998 35.489C69.4158 35.489 70.8867 35.9604 71.9379 36.6242C73.3354 37.5065 74 38.7392 74 39.6825C74 40.5225 73.3336 41.0933 72.2376 41.4559C71.0643 41.8443 69.3741 42 67.5 42C65.6259 42 63.9355 41.8443 62.7624 41.4559C61.6665 41.0933 61 40.5225 61 39.6825C61 38.7392 61.6646 37.5066 63.0621 36.6242C64.1133 35.9604 65.5841 35.489 67.5002 35.489H67.4998ZM67.4998 29C68.3545 29 69.1286 29.3404 69.6886 29.8902C70.2486 30.44 70.5953 31.2003 70.5953 32.0394C70.5953 32.8786 70.2486 33.6386 69.6886 34.1884C69.1286 34.7382 68.3545 35.0786 67.4998 35.0786C66.6451 35.0786 65.871 34.7382 65.311 34.1884C64.7511 33.6386 64.4044 32.8786 64.4044 32.0394C64.4044 31.2003 64.7511 30.44 65.311 29.8902C65.871 29.3404 66.6451 29 67.4998 29Z" fill="white"/>
<defs>
<filter id="filter0_bd_110_1624" x="0" y="-16" width="136" height="144" filterUnits="userSpaceOnUse" color-interpolation-filters="sRGB">
<feFlood flood-opacity="0" result="BackgroundImageFix"/>
<feGaussianBlur in="BackgroundImageFix" stdDeviation="16"/>
<feComposite in2="SourceAlpha" operator="in" result="effect1_backgroundBlur_110_1624"/>
<feColorMatrix in="SourceAlpha" type="matrix" values="0 0 0 0 0 0 0 0 0 0 0 0 0 0 0 0 0 0 127 0" result="hardAlpha"/>
<feOffset dy="24"/>
<feGaussianBlur stdDeviation="24"/>
<feComposite in2="hardAlpha" operator="out"/>
<feColorMatrix type="matrix" values="0 0 0 0 0 0 0 0 0 0 0 0 0 0 0 0 0 0 0.4 0"/>
<feBlend mode="normal" in2="effect1_backgroundBlur_110_1624" result="effect2_dropShadow_110_1624"/>
<feBlend mode="normal" in="SourceGraphic" in2="effect2_dropShadow_110_1624" result="shape"/>
</filter>
<radialGradient id="paint0_radial_110_1624" cx="0" cy="0" r="1" gradientUnits="userSpaceOnUse" gradientTransform="translate(68 29.3784) rotate(90) scale(91.3514 39.0751)">
<stop stop-color="white" stop-opacity="0"/>
<stop offset="1" stop-color="white"/>
</radialGradient>
</defs>
</svg>
